HIERARCHY
ROOT root
{
	OFFSET	0	13.1	24.9
	CHANNELS 6  Xposition Yposition Zposition Xrotation Yrotation Zrotation
	JOINT spine_1
	{
		OFFSET	0	9.99999	0
		CHANNELS 3  Xrotation Yrotation Zrotation
		JOINT spine_2
		{
			OFFSET	0	112	-10
			CHANNELS 3  Xrotation Yrotation Zrotation
			JOINT spine_3
			{
				OFFSET	0	206.5	19.3
				CHANNELS 3  Xrotation Yrotation Zrotation
				JOINT spine_4
				{
					OFFSET	0	110.4	14.6
					CHANNELS 3  Xrotation Yrotation Zrotation
					JOINT neck_1
					{
						OFFSET	0	71.8	-50.3
						CHANNELS 3  Xrotation Yrotation Zrotation
						JOINT neck_2
						{
							OFFSET	0	86.2	-25.8
							CHANNELS 3  Xrotation Yrotation Zrotation
							JOINT head_ee
							{
								OFFSET	0	179.8	-8.7
								CHANNELS 3  Xrotation Yrotation Zrotation
								End Site
								{
									OFFSET	1	0	0
								}
							}
						}
					}
					JOINT left_clavicle
					{
						OFFSET	-43.2	22.4	-70.8
						CHANNELS 3  Xrotation Yrotation Zrotation
						JOINT left_shoulder
						{
							OFFSET	-93.9	-5.79999	48.7
							CHANNELS 3  Xrotation Yrotation Zrotation
							JOINT left_elbow
							{
								OFFSET	-291.4	-30.8	15.2
								CHANNELS 3  Xrotation Yrotation Zrotation
								JOINT left_lowarm_twist
								{
									OFFSET	-110.7	-3.89999	13.6
									CHANNELS 3  Xrotation Yrotation Zrotation
									JOINT left_hand
									{
										OFFSET	-110.7	-3.89999	13.6
										CHANNELS 3  Xrotation Yrotation Zrotation
										JOINT left_ee
										{
											OFFSET	-80.8	-5.10001	12.1
											CHANNELS 3  Xrotation Yrotation Zrotation
											End Site
											{
												OFFSET	1	0	0
											}
										}
									}
								}
							}
						}
					}
					JOINT right_clavicle
					{
						OFFSET	43.2	22.4	-70.8
						CHANNELS 3  Xrotation Yrotation Zrotation
						JOINT right_shoulder
						{
							OFFSET	93.9	-5.79999	48.7
							CHANNELS 3  Xrotation Yrotation Zrotation
							JOINT right_elbow
							{
								OFFSET	291.4	-30.8	15.2
								CHANNELS 3  Xrotation Yrotation Zrotation
								JOINT right_lowarm_twist
								{
									OFFSET	110.7	-3.89999	13.6
									CHANNELS 3  Xrotation Yrotation Zrotation
									JOINT right_hand
									{
										OFFSET	110.7	-3.89999	13.6
										CHANNELS 3  Xrotation Yrotation Zrotation
										JOINT right_ee
										{
											OFFSET	80.8	-5.10001	12.1
											CHANNELS 3  Xrotation Yrotation Zrotation
											End Site
											{
												OFFSET	1	0	0
											}
										}
									}
								}
							}
						}
					}
				}
			}
		}
	}
	JOINT left_hip
	{
		OFFSET	-82.8	-127.5	0.300001
		CHANNELS 3  Xrotation Yrotation Zrotation
		JOINT left_knee
		{
			OFFSET	-28.2	-396.7	2.2
			CHANNELS 3  Xrotation Yrotation Zrotation
			JOINT left_ankle
			{
				OFFSET	-11.7	-411.3	35.4
				CHANNELS 3  Xrotation Yrotation Zrotation
				JOINT left_toes
				{
					OFFSET	0	-60	-88.6
					CHANNELS 3  Xrotation Yrotation Zrotation
					JOINT left_foot_ee
					{
						OFFSET	-22.5	-16.5	-42.2
						CHANNELS 3  Xrotation Yrotation Zrotation
						End Site
						{
							OFFSET	1	0	0
						}
					}
				}
			}
		}
	}
	JOINT right_hip
	{
		OFFSET	82.8	-127.5	0.300001
		CHANNELS 3  Xrotation Yrotation Zrotation
		JOINT right_knee
		{
			OFFSET	28.2	-396.7	2.2
			CHANNELS 3  Xrotation Yrotation Zrotation
			JOINT right_ankle
			{
				OFFSET	11.7	-411.3	35.4
				CHANNELS 3  Xrotation Yrotation Zrotation
				JOINT right_toes
				{
					OFFSET	0	-60	-88.6
					CHANNELS 3  Xrotation Yrotation Zrotation
					JOINT right_foot_ee
					{
						OFFSET	22.5	-16.5	-42.2
						CHANNELS 3  Xrotation Yrotation Zrotation
						End Site
						{
							OFFSET	1	0	0
						}
					}
				}
			}
		}
	}
}
MOTION
Frames: 12
Frame Time: 0.02
2861.38105889 720.674 -1638.32986709 -12.111462527 79.669936935 19.3738633616 3.50007 -0.364026 -3.71364 3.50773 -0.127148 -3.72925 3.51255 0.433754 -3.70615 3.49343 -0.156587 -3.72813 -15.4979 12.7384 8.76688 -15.6177 19.3006 12.5927 -0.0 0.0 -0.0 10.736 9.24246 20.3386 -10.0678 -23.1575 65.7509 1.87164 -42.8311 0.734131 8.75956 0.22528 -1.09518 -0.89553 12.9033 -0.327705 -0.0 0.0 -0.0 -2.11871 -17.2485 1.25057 -3.44877 23.164 -73.0013 0.179016 5.06783 -0.00792223 -54.8299 4.64769 -4.91137 0.402237 9.07455 1.13815 0.0 0.0 0.0 7.36171 -9.75592 -4.61004 -6.15721 0.204099 0.922456 27.558 27.2224 -3.87315 -13.0936 0.0 0.0 -0.0 0.0 -0.0 10.546 0.551625 0.760654 -41.7045 0.57875 -6.23522 11.1676 -8.74402 1.58106 -39.862 0.0 0.0 0.0 0.0 0.0 
2861.09250554 720.674 -1641.42803269 -11.497292517 79.1196894827 18.7490276269 3.50007 -0.364026 -3.71364 3.50773 -0.127148 -3.72925 3.51255 0.433754 -3.70615 3.49343 -0.156587 -3.72813 -15.4979 12.7384 8.76688 -15.6177 19.3006 12.5927 -0.0 0.0 -0.0 10.736 9.24246 20.3386 -10.0678 -23.1575 65.7509 1.87164 -42.8311 0.734131 8.75956 0.22528 -1.09518 -0.89553 12.9033 -0.327705 -0.0 0.0 -0.0 -2.11871 -17.2485 1.25057 -3.44877 23.164 -73.0013 0.179016 5.06783 -0.00792223 -54.8299 4.64769 -4.91137 0.402237 9.07455 1.13815 0.0 0.0 0.0 7.36171 -9.75592 -4.61004 -6.15721 0.204099 0.922456 27.558 27.2224 -3.87315 -13.0936 0.0 0.0 -0.0 0.0 -0.0 10.546 0.551625 0.760654 -41.7045 0.57875 -6.23522 11.1676 -8.74402 1.58106 -39.862 0.0 0.0 0.0 0.0 0.0 
2856.45018216 722.189 -1632.88120098 -12.2008702401 80.6056792555 19.386090071 3.53894 -0.384395 -3.65733 3.54636 -0.151051 -3.67435 3.55263 0.399258 -3.65574 3.53403 -0.182707 -3.67292 -15.2644 12.3604 7.91644 -15.4078 19.0258 11.6323 -0.0 0.0 -0.0 11.0993 7.48288 21.2554 -8.37754 -23.6632 64.694 1.95953 -44.1432 0.794614 6.75377 0.188531 -0.841611 -1.31377 12.2338 -3.2617 -0.0 0.0 -0.0 -2.30647 -16.8529 1.61104 -4.5953 22.7008 -72.8347 0.181382 5.13445 -0.00813251 -54.9688 4.66452 -4.91721 0.436343 7.32808 0.164069 0.0 0.0 0.0 6.75868 -7.89085 -4.47683 -5.64248 0.19085 0.844575 27.8034 27.4203 -3.90811 -15.5478 0.0 0.0 -0.0 0.0 -0.0 11.5988 -2.6837 1.25907 -37.7805 0.331636 -5.68505 9.65227 -10.8819 1.37547 -40.0905 0.0 0.0 0.0 0.0 0.0 
2830.29544902 720.018 -1620.5275649 -14.2202277588 84.2446736264 21.110936117 3.266 -0.458076 -3.45745 3.27262 -0.237278 -3.47955 3.2845 0.300981 -3.47463 3.26775 -0.251207 -3.47858 -15.285 11.5239 8.14319 -15.3596 17.2888 11.5498 -0.0 0.0 -0.0 10.7652 5.52356 20.8058 -3.60404 -23.9527 64.8443 2.05695 -45.5325 0.863313 0.132864 0.00466234 -0.0163278 -2.01265 7.0047 -10.2337 -0.0 0.0 -0.0 -2.09612 -16.7898 1.29356 -8.90668 22.0926 -72.316 0.200735 5.67887 -0.00995611 -57.0062 4.91295 -4.99826 1.11969 8.38593 -4.0027 0.0 0.0 0.0 4.16237 -1.49183 -4.87002 -4.07633 0.14624 0.608368 35.8135 24.7977 -4.74182 -26.4882 0.0 0.0 -0.0 0.0 -0.0 14.0973 -14.6074 2.87446 -26.8819 -0.150812 -4.08486 13.0462 -7.27901 1.83406 -40.1324 0.0 0.0 0.0 0.0 0.0 
2811.93065671 723.779 -1616.52171067 -23.9891263837 86.0518413109 30.9832417076 3.20082 -0.578754 -3.48989 3.20752 -0.355652 -3.51959 3.22698 0.193517 -3.5322 3.20976 -0.366404 -3.51849 -14.3647 11.3061 7.59897 -14.4284 17.0237 10.8215 -0.0 0.0 -0.0 10.6969 3.59328 20.844 -0.212317 -23.9388 64.4196 2.10213 -46.1544 0.895729 -4.51341 -0.180725 0.547745 -2.47964 8.68452 -12.4959 -0.0 0.0 -0.0 -1.97541 -16.1845 1.20599 -12.442 21.4462 -71.9547 0.198864 5.62629 -0.00977179 -57.7137 4.99986 -5.02433 1.49983 7.23076 -7.07361 0.0 0.0 0.0 3.72305 3.64538 -6.07589 -3.08282 0.114597 0.459179 40.1274 24.7125 -5.17083 -32.511 0.0 0.0 -0.0 0.0 -0.0 17.5791 -26.7329 3.51249 -12.436 -0.309072 -1.87973 11.3697 -0.71568 1.62064 -40.2111 0.0 0.0 0.0 0.0 0.0 
2801.83237484 722.99 -1623.73564339 -35.054796156 85.491532709 41.9536113241 3.46587 -0.541043 -3.46278 3.47248 -0.319739 -3.49014 3.4891 0.208476 -3.49854 3.47219 -0.346326 -3.48761 -14.309 11.2196 6.71005 -14.4189 17.385 9.95698 -0.0 0.0 -0.0 10.67 3.05685 20.8334 0.508116 -23.874 63.5422 2.21507 -47.6493 0.978197 -6.45218 -0.27152 0.778409 -2.34815 10.31 -10.8126 -0.0 0.0 -0.0 -1.83023 -16.9425 0.853813 -14.1928 22.309 -71.5192 0.207761 5.87627 -0.0106634 -58.7756 5.13088 -5.06143 1.582 6.041 -8.13749 0.0 0.0 0.0 4.15113 6.97799 -6.63827 -1.16701 0.04629 0.173109 41.0252 25.429 -5.27983 -36.8154 0.0 0.0 -0.0 0.0 -0.0 18.2386 -31.3431 3.0182 -10.2065 -0.283822 -1.53859 11.9107 6.03675 1.73137 -35.1334 0.0 0.0 0.0 0.0 0.0 
2781.56148966 718.07 -1633.37074913 -40.9463641042 85.5543271064 47.912657448 3.63409 -0.584379 -3.49404 3.64081 -0.361002 -3.52409 3.6598 0.162157 -3.5388 3.64254 -0.398412 -3.52006 -15.5184 10.8485 5.77044 -15.7038 17.4186 9.15569 -0.0 0.0 -0.0 10.6724 2.40423 20.889 1.68037 -23.9153 62.2899 2.45859 -50.6035 1.1624 -8.84676 -0.394373 1.05891 -2.1885 12.2595 -8.80834 -0.0 0.0 -0.0 -1.56836 -18.1673 0.255835 -17.131 23.7763 -70.6686 0.21291 6.02084 -0.011197 -60.0739 5.29194 -5.10348 1.64884 4.62064 -9.19016 0.0 0.0 0.0 3.25046 10.966 -7.52252 1.528 -0.0659309 -0.225198 42.5275 25.7549 -5.4307 -40.1408 0.0 0.0 -0.0 0.0 -0.0 21.1705 -37.3324 2.84763 -5.8922 -0.197366 -0.882344 12.4123 15.0523 1.89668 -29.2964 0.0 0.0 0.0 0.0 0.0 
2768.04192076 713.703 -1639.23362809 -21.3065813313 84.8040198466 27.2206226017 3.37549 -0.497413 -3.57836 3.38257 -0.268856 -3.60272 3.39657 0.281651 -3.60174 3.37859 -0.290334 -3.60106 -17.0644 10.5554 6.18129 -17.2642 16.8405 9.6843 -0.0 0.0 -0.0 10.3136 2.07792 20.1785 2.67444 -24.5808 63.9189 2.65469 -52.7406 1.31626 -8.54829 -0.378421 1.02423 -1.93151 14.5338 -6.06774 -0.0 0.0 -0.0 -1.41277 -18.4424 -0.0224339 -18.2394 23.8935 -69.9036 0.197632 5.59164 -0.00965143 -61.1732 5.42901 -5.13621 1.71511 3.18128 -10.2408 0.0 0.0 0.0 1.01028 11.6627 -7.8939 -0.795557 0.0319395 0.117909 42.3926 21.3592 -5.2792 -39.7272 0.0 0.0 -0.0 0.0 -0.0 24.7126 -38.6548 2.8355 -1.80846 -0.070227 -0.26864 10.888 19.975 1.7438 -27.2314 0.0 0.0 0.0 0.0 0.0 
2767.61793194 713.703 -1645.70183656 -18.1970708059 83.951313824 24.0961746995 3.37549 -0.497413 -3.57836 3.38257 -0.268856 -3.60272 3.39657 0.281651 -3.60174 3.37859 -0.290334 -3.60106 -17.0644 10.5554 6.18129 -17.2642 16.8405 9.6843 -0.0 0.0 -0.0 10.3136 2.07792 20.1785 2.67444 -24.5808 63.9189 2.65469 -52.7406 1.31626 -8.54829 -0.378421 1.02423 -1.93151 14.5338 -6.06774 -0.0 0.0 -0.0 -1.41277 -18.4424 -0.0224339 -18.2394 23.8935 -69.9036 0.197632 5.59164 -0.00965143 -61.1732 5.42901 -5.13621 1.71511 3.18128 -10.2408 0.0 0.0 0.0 1.01028 11.6627 -7.8939 -0.795557 0.0319395 0.117909 42.3926 21.3592 -5.2792 -39.7272 0.0 0.0 -0.0 0.0 -0.0 24.7126 -38.6548 2.8355 -1.80846 -0.070227 -0.26864 10.888 19.975 1.7438 -27.2314 0.0 0.0 0.0 0.0 0.0 
2759.7894805 711.346 -1657.3923868 -17.7140755447 83.8666455299 24.8596161143 3.24711 -0.533803 -3.59274 3.25424 -0.304259 -3.61938 3.2708 0.257088 -3.62303 3.25263 -0.317945 -3.6182 -17.0524 9.91768 5.39245 -17.2501 16.0501 8.71045 -0.0 0.0 -0.0 10.5672 2.03654 20.7003 2.60721 -24.5824 62.6768 2.84004 -54.5846 1.46559 -10.0224 -0.458963 1.19471 -1.88921 13.4395 -6.33076 -0.0 0.0 -0.0 -1.2846 -18.4182 -0.212702 -17.8601 23.3315 -69.8946 0.217566 6.15151 -0.0116906 -60.8532 5.38904 -5.12695 1.82632 3.19901 -10.9945 0.0 0.0 0.0 0.315717 13.2778 -8.45473 -1.10096 0.0437645 0.163287 42.7028 22.7785 -5.34755 -39.3437 0.0 0.0 -0.0 0.0 -0.0 26.2911 -39.6235 2.86573 0.00164361 6.76793e-05 0.000243147 11.9692 22.7879 1.96095 -25.5717 0.0 0.0 0.0 0.0 0.0 
2747.75423418 707.085 -1664.77789507 -14.5012218977 83.4131391732 21.8152668212 3.10898 -0.596315 -3.67048 3.1164 -0.361708 -3.70093 3.13731 0.221453 -3.71195 3.11827 -0.367148 -3.7004 -17.9553 9.57421 5.5253 -18.1504 15.427 8.83962 -0.0 0.0 -0.0 10.4622 1.84499 20.4984 3.1486 -24.8003 62.7441 2.97821 -55.8585 1.57909 -10.3752 -0.47889 1.23521 -1.79485 13.9323 -5.50113 -0.0 0.0 -0.0 -1.14735 -18.3547 -0.411168 -17.9646 23.5459 -69.406 0.235319 6.64912 -0.0136696 -61.1157 5.42182 -5.13456 1.87532 2.80223 -11.494 0.0 0.0 0.0 0.297278 13.5615 -9.02801 -2.01704 0.0777795 0.29976 42.4424 20.9861 -5.27348 -39.0912 0.0 0.0 -0.0 0.0 -0.0 27.501 -40.2041 3.00859 1.61749 0.0699785 0.238331 12.1573 26.4145 2.07133 -24.2507 0.0 0.0 0.0 0.0 0.0 
2742.59953408 711.317 -1673.94291835 -17.2928163458 82.5744579256 24.5043301732 3.06793 -0.562515 -3.64594 3.07527 -0.329535 -3.67429 3.09404 0.251907 -3.68042 3.0753 -0.332106 -3.67406 -18.4504 8.84799 5.61397 -18.6033 14.0394 8.7027 -0.0 0.0 -0.0 10.3196 1.90166 20.2025 3.89219 -24.5991 63.8484 2.89223 -55.0755 1.50826 -10.677 -0.496135 1.26975 -1.79065 15.7505 -4.60752 -0.0 0.0 -0.0 -0.846359 -18.6767 -0.910565 -17.9494 23.6925 -69.2837 0.24735 6.9858 -0.0150979 -61.0163 5.40941 -5.13169 1.89289 2.50923 -11.735 0.0 0.0 0.0 1.13039 14.1081 -9.49218 -2.32827 0.0888381 0.346244 41.965 19.1649 -5.18621 -38.9524 0.0 0.0 -0.0 0.0 -0.0 28.2724 -40.7225 3.08324 2.75597 0.123262 0.40488 8.11257 29.5029 1.46241 -23.7353 0.0 0.0 0.0 0.0 0.0 
